<!-- Simple placeholder for a screenshot -->
<svg width="800" height="450" xmlns="http://www.w3.org/2000/svg">
  <rect width="800" height="450" fill="#f5f5f5"/>
  <rect x="0" y="0" width="250" height="450" fill="#0055a6"/>
  <rect x="250" y="0" width="550" height="450" fill="#ffffff"/>
  
  <!-- Nexa logo placeholder -->
  <rect x="20" y="20" width="50" height="50" fill="#ffffff" rx="4"/>
  <text x="80" y="50" font-family="Arial" font-size="24" fill="#ffffff">Nexa</text>
  
  <!-- Menu items -->
  <text x="45" y="120" font-family="Arial" font-size="14" fill="#ffffff">○ Create Campaign</text>
  <text x="45" y="160" font-family="Arial" font-size="14" fill="#ffffff">○ View Campaigns</text>
  
  <!-- Main content area -->
  <text x="280" y="50" font-family="Arial" font-size="24" fill="#212121">Create Campaign</text>
  
  <!-- Tabs -->
  <rect x="280" y="70" width="500" height="40" fill="#0055a6" rx="4"/>
  <text x="300" y="95" font-family="Arial" font-size="14" fill="#ffffff">Campaign Details</text>
  <text x="440" y="95" font-family="Arial" font-size="14" fill="#ffffff">Logic Builder</text>
  <text x="550" y="95" font-family="Arial" font-size="14" fill="#ffffff">Schedule</text>
  <text x="650" y="95" font-family="Arial" font-size="14" fill="#ffffff">Summary</text>
  
  <!-- Content area -->
  <text x="280" y="150" font-family="Arial" font-size="18" fill="#212121">Campaign Details</text>
  <rect x="280" y="170" width="500" height="40" fill="#f5f5f5" rx="4"/>
  <text x="290" y="195" font-family="Arial" font-size="14" fill="#757575">Campaign Name</text>
  
  <rect x="280" y="220" width="500" height="40" fill="#f5f5f5" rx="4"/>
  <text x="290" y="245" font-family="Arial" font-size="14" fill="#757575">Description</text>
  
  <rect x="280" y="300" width="120" height="40" fill="#0055a6" rx="4"/>
  <text x="315" y="325" font-family="Arial" font-size="14" fill="#ffffff">NEXT</text>
</svg>
